<svg width="44" height="36" viewBox="0 0 44 36" fill="none" xmlns="http://www.w3.org/2000/svg">
<path fill-rule="evenodd" clip-rule="evenodd" d="M0.750889 33.4219C3.02692 36.8399 8.749 35.4659 12.583 34.0559C21.9752 30.6039 34.2393 21.6659 40.4074 13.3919C44.7895 7.51394 44.3715 4.26794 43.2475 2.57794C42.5975 1.60194 41.2274 0.439941 38.3854 0.439941C33.2113 0.439941 26.2052 4.03394 21.7772 6.75994C17.4151 4.18794 10.641 0.867941 5.61295 0.867941C2.78292 0.867941 1.4129 1.99994 0.76489 2.95194C-0.159123 4.30394 -0.617129 6.66194 1.6029 10.5819C1.2889 11.1439 1.11089 11.7919 1.11089 12.4819C1.11089 14.6159 2.81092 16.3459 4.90494 16.3459C6.99897 16.3459 8.699 14.6159 8.699 12.4819C8.699 10.3479 7.00097 8.61794 4.90494 8.61794L4.48494 8.64194C3.31892 6.52394 3.33292 5.34194 3.59493 4.95794C3.84093 4.59394 4.59694 4.37994 5.61295 4.37994C7.20498 4.37994 9.283 4.86194 11.643 5.72994C13.9471 6.57994 16.3091 7.71994 18.4751 8.91194C13.9771 12.0079 10.527 14.9999 7.46498 18.1079C6.09896 19.5159 4.75494 21.0459 3.59093 22.6059C-0.791131 28.4859 -0.373125 31.7319 0.750889 33.4219ZM40.3914 4.54594C40.7634 5.10394 40.6714 7.22994 37.6594 11.2679C33.7853 16.4659 27.6052 21.5699 22.1872 25.1219C17.7731 28.0159 10.313 32.0499 5.61295 32.0499C4.59094 32.0499 3.85893 31.8319 3.60693 31.4539C2.86092 30.3319 4.44894 26.1599 10.085 20.4039C12.175 22.2659 14.4291 24.0459 16.7171 25.6679L16.7431 25.6859C17.9471 25.0219 19.0031 24.3879 20.0471 23.7259C17.3171 21.8779 14.7551 19.8819 12.605 17.9799C15.4651 15.3859 18.6491 12.9519 21.8112 10.8779C24.5652 12.6059 27.2212 14.5319 29.6113 16.4999C30.4853 15.7159 31.3393 14.9039 32.1533 14.0779C29.9993 12.2819 27.6392 10.5179 25.1092 8.84394C28.5333 6.86794 34.4793 3.94994 38.3854 3.94994C39.4074 3.94994 40.1394 4.16794 40.3914 4.54594Z" fill="#C86DD7"/>
</svg>
